<mxfile host="drawio-plugin" modified="2022-01-20T12:09:09.323Z" agent="5.0 (Macintosh; Intel Mac OS X 10_14_6) AppleWebKit/537.36 (KHTML, like Gecko) Chrome/89.0.4389.114 Safari/537.36" etag="w4L-Xx8a2N6TOmOs3lKf" version="15.5.4" type="embed" pages="5"><diagram id="KUnR1pUKcfkr-RDepORW" name="1. connexion"><mxGraphModel dx="1366" dy="794" grid="1" gridSize="10" guides="1" tooltips="1" connect="1" arrows="1" fold="1" page="1" pageScale="1" pageWidth="827" pageHeight="1169" math="0" shadow="0"><root><mxCell id="0"/><mxCell id="1" parent="0"/><mxCell id="ZBbE1sinww5m6HYyCcib-1" value="" style="group" parent="1" vertex="1" connectable="0"><mxGeometry x="310" y="90" width="310" height="453" as="geometry"/></mxCell><mxCell id="THIoc8QtqhNPpxG0_Eg2-5" value="" style="shape=folder;fontStyle=1;spacingTop=10;tabWidth=111;tabHeight=24;tabPosition=left;html=1;align=left;verticalAlign=top;" parent="ZBbE1sinww5m6HYyCcib-1" vertex="1"><mxGeometry y="3" width="310" height="450" as="geometry"/></mxCell><mxCell id="THIoc8QtqhNPpxG0_Eg2-6" value="1. Connexion" style="text;html=1;strokeColor=none;fillColor=none;align=center;verticalAlign=middle;whiteSpace=wrap;rounded=0;fontFamily=Open Sans;fontSource=https%3A%2F%2Ffonts.googleapis.com%2Fcss%3Ffamily%3DOpen%2BSans;fontSize=14;" parent="ZBbE1sinww5m6HYyCcib-1" vertex="1"><mxGeometry x="13" width="97" height="30" as="geometry"/></mxCell><mxCell id="uh43iIKea6PYvybPLhX6-2" value="Se connecter" style="ellipse;whiteSpace=wrap;html=1;fontFamily=Open Sans;verticalAlign=middle;fontSource=https%3A%2F%2Ffonts.googleapis.com%2Fcss%3Ffamily%3DOpen%2BSans;fillColor=#fff2cc;strokeColor=#d6b656;" parent="ZBbE1sinww5m6HYyCcib-1" vertex="1"><mxGeometry x="104" y="90" width="90" height="60" as="geometry"/></mxCell><mxCell id="DgZuV7wX1wumPL7YWMZb-1" value="Créer nouveau compte" style="ellipse;whiteSpace=wrap;html=1;fontFamily=Open Sans;verticalAlign=middle;fontSource=https%3A%2F%2Ffonts.googleapis.com%2Fcss%3Ffamily%3DOpen%2BSans;fillColor=#fff2cc;strokeColor=#d6b656;" vertex="1" parent="ZBbE1sinww5m6HYyCcib-1"><mxGeometry x="110" y="290" width="90" height="60" as="geometry"/></mxCell><mxCell id="TYDmkTxunngjgZpNK9Lh-3" value="Élève / Tuteur" style="shape=umlActor;verticalLabelPosition=bottom;verticalAlign=top;html=1;outlineConnect=0;fontFamily=Open Sans;fontSource=https%3A%2F%2Ffonts.googleapis.com%2Fcss%3Ffamily%3DOpen%2BSans;" parent="1" vertex="1"><mxGeometry x="110" y="260" width="70" height="140" as="geometry"/></mxCell><mxCell id="UVYaXJV1hf5EVzLLOGzE-1" value="" style="endArrow=classic;html=1;rounded=0;fontSize=18;entryX=0;entryY=0.5;entryDx=0;entryDy=0;exitX=1;exitY=0.3333333333333333;exitDx=0;exitDy=0;exitPerimeter=0;" parent="1" source="TYDmkTxunngjgZpNK9Lh-3" target="uh43iIKea6PYvybPLhX6-2" edge="1"><mxGeometry width="50" height="50" relative="1" as="geometry"><mxPoint x="620" y="440" as="sourcePoint"/><mxPoint x="670" y="390" as="targetPoint"/></mxGeometry></mxCell><mxCell id="Kg5xBYZgwcfwXlrPVv4x-1" value="&lt;span id=&quot;docs-internal-guid-87a97179-7fff-c479-6de7-f2c82aa91268&quot;&gt;&lt;span style=&quot;font-size: 9pt ; font-family: &amp;#34;arial&amp;#34; ; background-color: transparent ; vertical-align: baseline&quot;&gt;Réinitialiser&lt;/span&gt;&lt;/span&gt;&lt;br&gt;mot de passe" style="ellipse;whiteSpace=wrap;html=1;fontFamily=Open Sans;verticalAlign=middle;fontSource=https%3A%2F%2Ffonts.googleapis.com%2Fcss%3Ffamily%3DOpen%2BSans;fillColor=#fff2cc;strokeColor=#d6b656;" vertex="1" parent="1"><mxGeometry x="420" y="276.5" width="90" height="60" as="geometry"/></mxCell><mxCell id="DgZuV7wX1wumPL7YWMZb-2" value="" style="endArrow=classic;html=1;rounded=0;fontSize=18;exitX=1;exitY=0.3333333333333333;exitDx=0;exitDy=0;exitPerimeter=0;" edge="1" parent="1" source="TYDmkTxunngjgZpNK9Lh-3" target="Kg5xBYZgwcfwXlrPVv4x-1"><mxGeometry width="50" height="50" relative="1" as="geometry"><mxPoint x="190" y="316.66666666666674" as="sourcePoint"/><mxPoint x="424" y="220" as="targetPoint"/></mxGeometry></mxCell><mxCell id="DgZuV7wX1wumPL7YWMZb-3" value="" style="endArrow=classic;html=1;rounded=0;fontSize=18;entryX=0;entryY=0.5;entryDx=0;entryDy=0;exitX=1;exitY=0.3333333333333333;exitDx=0;exitDy=0;exitPerimeter=0;" edge="1" parent="1" source="TYDmkTxunngjgZpNK9Lh-3" target="DgZuV7wX1wumPL7YWMZb-1"><mxGeometry width="50" height="50" relative="1" as="geometry"><mxPoint x="180" y="310" as="sourcePoint"/><mxPoint x="434" y="230" as="targetPoint"/></mxGeometry></mxCell></root></mxGraphModel></diagram><diagram id="M9xIVLAOQFdfFHR1ENn9" name="2. tableau de bord"><mxGraphModel dx="1366" dy="794" grid="1" gridSize="10" guides="1" tooltips="1" connect="1" arrows="1" fold="1" page="1" pageScale="1" pageWidth="827" pageHeight="1169" math="0" shadow="0"><root><mxCell id="1OBQYQIUP6oZaAc2y_LA-0"/><mxCell id="1OBQYQIUP6oZaAc2y_LA-1" parent="1OBQYQIUP6oZaAc2y_LA-0"/><mxCell id="WQVlLFC1r0coPAHuCt4i-0" value="" style="group" parent="1OBQYQIUP6oZaAc2y_LA-1" vertex="1" connectable="0"><mxGeometry x="310" y="30" width="360" height="530" as="geometry"/></mxCell><mxCell id="WQVlLFC1r0coPAHuCt4i-1" value="" style="shape=folder;fontStyle=1;spacingTop=10;tabWidth=130;tabHeight=28;tabPosition=left;html=1;align=left;verticalAlign=top;" parent="WQVlLFC1r0coPAHuCt4i-0" vertex="1"><mxGeometry y="1.7599337748344368" width="360" height="526.4900662251656" as="geometry"/></mxCell><mxCell id="WQVlLFC1r0coPAHuCt4i-2" value="&lt;font style=&quot;font-size: 14px&quot;&gt;2. Tabelau de bord&lt;/font&gt;" style="text;html=1;strokeColor=none;fillColor=none;align=center;verticalAlign=middle;whiteSpace=wrap;rounded=0;fontFamily=Open Sans;fontSource=https%3A%2F%2Ffonts.googleapis.com%2Fcss%3Ffamily%3DOpen%2BSans;fontSize=14;" parent="WQVlLFC1r0coPAHuCt4i-0" vertex="1"><mxGeometry width="130" height="35.1" as="geometry"/></mxCell><mxCell id="WQVlLFC1r0coPAHuCt4i-4" value="Consulter&lt;br&gt;tâches" style="ellipse;whiteSpace=wrap;html=1;fontFamily=Open Sans;verticalAlign=middle;fontSource=https%3A%2F%2Ffonts.googleapis.com%2Fcss%3Ffamily%3DOpen%2BSans;fillColor=#fff2cc;strokeColor=#d6b656;" parent="WQVlLFC1r0coPAHuCt4i-0" vertex="1"><mxGeometry x="135" y="150" width="90" height="60" as="geometry"/></mxCell><mxCell id="O8qXiJtw2eGrAZmjT_0R-7" value="Consulter&lt;br&gt;évènements" style="ellipse;whiteSpace=wrap;html=1;fontFamily=Open Sans;verticalAlign=middle;fontSource=https%3A%2F%2Ffonts.googleapis.com%2Fcss%3Ffamily%3DOpen%2BSans;fillColor=#fff2cc;strokeColor=#d6b656;" parent="WQVlLFC1r0coPAHuCt4i-0" vertex="1"><mxGeometry x="135" y="260" width="90" height="60" as="geometry"/></mxCell><mxCell id="O8qXiJtw2eGrAZmjT_0R-8" value="Consulter&lt;br&gt;Messages&lt;br&gt;non lus" style="ellipse;whiteSpace=wrap;html=1;fontFamily=Open Sans;verticalAlign=middle;fontSource=https%3A%2F%2Ffonts.googleapis.com%2Fcss%3Ffamily%3DOpen%2BSans;fillColor=#fff2cc;strokeColor=#d6b656;" parent="WQVlLFC1r0coPAHuCt4i-0" vertex="1"><mxGeometry x="135" y="370" width="90" height="60" as="geometry"/></mxCell><mxCell id="ixfkal_lUHKr-x1qklB_-9" style="edgeStyle=orthogonalEdgeStyle;rounded=0;orthogonalLoop=1;jettySize=auto;html=1;fontFamily=Open Sans;fontSource=https%3A%2F%2Ffonts.googleapis.com%2Fcss%3Ffamily%3DOpen%2BSans;fontSize=17;" parent="1OBQYQIUP6oZaAc2y_LA-1" edge="1"><mxGeometry relative="1" as="geometry"><mxPoint x="470" y="428" as="sourcePoint"/></mxGeometry></mxCell><mxCell id="X8_WFffuxxabjsE24lAA-3" value="" style="endArrow=classic;html=1;rounded=0;fontFamily=Open Sans;fontSource=https%3A%2F%2Ffonts.googleapis.com%2Fcss%3Ffamily%3DOpen%2BSans;fontSize=13;entryX=0;entryY=0.5;entryDx=0;entryDy=0;exitX=1;exitY=0.3333333333333333;exitDx=0;exitDy=0;exitPerimeter=0;" parent="1OBQYQIUP6oZaAc2y_LA-1" source="mzEIMfMMCoD7IkeZDwDo-0" target="WQVlLFC1r0coPAHuCt4i-4" edge="1"><mxGeometry width="50" height="50" relative="1" as="geometry"><mxPoint x="200" y="170" as="sourcePoint"/><mxPoint x="320" y="370" as="targetPoint"/></mxGeometry></mxCell><mxCell id="mzEIMfMMCoD7IkeZDwDo-0" value="Élève / Tuteur" style="shape=umlActor;verticalLabelPosition=bottom;verticalAlign=top;html=1;outlineConnect=0;fontFamily=Open Sans;fontSource=https%3A%2F%2Ffonts.googleapis.com%2Fcss%3Ffamily%3DOpen%2BSans;" parent="1OBQYQIUP6oZaAc2y_LA-1" vertex="1"><mxGeometry x="110" y="260" width="70" height="140" as="geometry"/></mxCell><mxCell id="mzEIMfMMCoD7IkeZDwDo-1" value="" style="endArrow=classic;html=1;rounded=0;fontFamily=Open Sans;fontSource=https%3A%2F%2Ffonts.googleapis.com%2Fcss%3Ffamily%3DOpen%2BSans;fontSize=13;exitX=1;exitY=0.3333333333333333;exitDx=0;exitDy=0;exitPerimeter=0;" parent="1OBQYQIUP6oZaAc2y_LA-1" source="mzEIMfMMCoD7IkeZDwDo-0" target="O8qXiJtw2eGrAZmjT_0R-7" edge="1"><mxGeometry width="50" height="50" relative="1" as="geometry"><mxPoint x="190" y="316.66666666666674" as="sourcePoint"/><mxPoint x="370" y="220" as="targetPoint"/></mxGeometry></mxCell><mxCell id="mzEIMfMMCoD7IkeZDwDo-2" value="" style="endArrow=classic;html=1;rounded=0;fontFamily=Open Sans;fontSource=https%3A%2F%2Ffonts.googleapis.com%2Fcss%3Ffamily%3DOpen%2BSans;fontSize=13;exitX=1;exitY=0.3333333333333333;exitDx=0;exitDy=0;exitPerimeter=0;entryX=0;entryY=0.5;entryDx=0;entryDy=0;" parent="1OBQYQIUP6oZaAc2y_LA-1" source="mzEIMfMMCoD7IkeZDwDo-0" target="O8qXiJtw2eGrAZmjT_0R-8" edge="1"><mxGeometry width="50" height="50" relative="1" as="geometry"><mxPoint x="190" y="316.66666666666674" as="sourcePoint"/><mxPoint x="370.16805388678927" y="327.40970978012547" as="targetPoint"/></mxGeometry></mxCell></root></mxGraphModel></diagram><diagram id="abMPPKh5dlIdJmRYoxNy" name="3. chat"><mxGraphModel dx="1366" dy="794" grid="1" gridSize="10" guides="1" tooltips="1" connect="1" arrows="1" fold="1" page="1" pageScale="1" pageWidth="827" pageHeight="1169" math="0" shadow="0"><root><mxCell id="RaduN4FEJv7Jgq1yJ2gZ-0"/><mxCell id="RaduN4FEJv7Jgq1yJ2gZ-1" parent="RaduN4FEJv7Jgq1yJ2gZ-0"/><mxCell id="y9w4QqAYuyESuMywKpjv-0" value="" style="group" parent="RaduN4FEJv7Jgq1yJ2gZ-1" vertex="1" connectable="0"><mxGeometry x="290" y="55" width="430" height="530" as="geometry"/></mxCell><mxCell id="y9w4QqAYuyESuMywKpjv-1" value="" style="shape=folder;fontStyle=1;spacingTop=10;tabWidth=111;tabHeight=24;tabPosition=left;html=1;align=left;verticalAlign=top;" parent="y9w4QqAYuyESuMywKpjv-0" vertex="1"><mxGeometry y="3.51" width="430" height="526.49" as="geometry"/></mxCell><mxCell id="y9w4QqAYuyESuMywKpjv-2" value="&lt;font style=&quot;font-size: 14px&quot;&gt;3. Chat&lt;/font&gt;" style="text;html=1;strokeColor=none;fillColor=none;align=center;verticalAlign=middle;whiteSpace=wrap;rounded=0;fontFamily=Open Sans;fontSource=https%3A%2F%2Ffonts.googleapis.com%2Fcss%3Ffamily%3DOpen%2BSans;fontSize=14;" parent="y9w4QqAYuyESuMywKpjv-0" vertex="1"><mxGeometry width="110" height="35.1" as="geometry"/></mxCell><mxCell id="rUhejU6MZNTzj8en0kv2-10" value="Ajouter un contact" style="ellipse;whiteSpace=wrap;html=1;fontFamily=Open Sans;verticalAlign=middle;fontSource=https%3A%2F%2Ffonts.googleapis.com%2Fcss%3Ffamily%3DOpen%2BSans;fillColor=#fff2cc;strokeColor=#d6b656;" parent="y9w4QqAYuyESuMywKpjv-0" vertex="1"><mxGeometry x="170" y="312.5" width="90" height="60" as="geometry"/></mxCell><mxCell id="rUhejU6MZNTzj8en0kv2-12" value="Supprimer un contact" style="ellipse;whiteSpace=wrap;html=1;fontFamily=Open Sans;verticalAlign=middle;fontSource=https%3A%2F%2Ffonts.googleapis.com%2Fcss%3Ffamily%3DOpen%2BSans;fillColor=#fff2cc;strokeColor=#d6b656;" parent="y9w4QqAYuyESuMywKpjv-0" vertex="1"><mxGeometry x="170" y="412.5" width="90" height="60" as="geometry"/></mxCell><mxCell id="vP3g1e_jsOb5a7pWJ1PA-1" value="Discuter avec un contact" style="ellipse;whiteSpace=wrap;html=1;fontFamily=Open Sans;verticalAlign=middle;fontSource=https%3A%2F%2Ffonts.googleapis.com%2Fcss%3Ffamily%3DOpen%2BSans;fillColor=#fff2cc;strokeColor=#d6b656;" parent="y9w4QqAYuyESuMywKpjv-0" vertex="1"><mxGeometry x="170" y="57.5" width="90" height="60" as="geometry"/></mxCell><mxCell id="vP3g1e_jsOb5a7pWJ1PA-3" value="Sélectionner conversation" style="ellipse;whiteSpace=wrap;html=1;fontFamily=Open Sans;verticalAlign=middle;fontSource=https%3A%2F%2Ffonts.googleapis.com%2Fcss%3Ffamily%3DOpen%2BSans;fillColor=#fff2cc;strokeColor=#d6b656;" parent="y9w4QqAYuyESuMywKpjv-0" vertex="1"><mxGeometry x="170" y="237.5" width="90" height="60" as="geometry"/></mxCell><mxCell id="dZsCkp-0b_cOngw6SixP-0" value="Afficher historique de conversations" style="ellipse;whiteSpace=wrap;html=1;fontFamily=Open Sans;verticalAlign=middle;fontSource=https%3A%2F%2Ffonts.googleapis.com%2Fcss%3Ffamily%3DOpen%2BSans;fillColor=#fff2cc;strokeColor=#d6b656;" vertex="1" parent="y9w4QqAYuyESuMywKpjv-0"><mxGeometry x="170" y="147.5" width="90" height="60" as="geometry"/></mxCell><mxCell id="Zfv8SsIStOB4ZA1KAw7b-3" value="" style="endArrow=classic;html=1;rounded=0;fontFamily=Open Sans;fontSource=https%3A%2F%2Ffonts.googleapis.com%2Fcss%3Ffamily%3DOpen%2BSans;fontSize=14;entryX=0;entryY=0.5;entryDx=0;entryDy=0;exitX=1;exitY=0.3333333333333333;exitDx=0;exitDy=0;exitPerimeter=0;" parent="RaduN4FEJv7Jgq1yJ2gZ-1" source="vP3g1e_jsOb5a7pWJ1PA-0" target="rUhejU6MZNTzj8en0kv2-10" edge="1"><mxGeometry width="50" height="50" relative="1" as="geometry"><mxPoint x="200" y="460" as="sourcePoint"/><mxPoint x="320" y="370" as="targetPoint"/></mxGeometry></mxCell><mxCell id="Zfv8SsIStOB4ZA1KAw7b-4" value="" style="endArrow=classic;html=1;rounded=0;fontFamily=Open Sans;fontSource=https%3A%2F%2Ffonts.googleapis.com%2Fcss%3Ffamily%3DOpen%2BSans;fontSize=14;exitX=1;exitY=0.3333333333333333;exitDx=0;exitDy=0;exitPerimeter=0;" parent="RaduN4FEJv7Jgq1yJ2gZ-1" source="vP3g1e_jsOb5a7pWJ1PA-0" target="rUhejU6MZNTzj8en0kv2-12" edge="1"><mxGeometry width="50" height="50" relative="1" as="geometry"><mxPoint x="200" y="460" as="sourcePoint"/><mxPoint x="465" y="380" as="targetPoint"/></mxGeometry></mxCell><mxCell id="vP3g1e_jsOb5a7pWJ1PA-0" value="Élève / Tuteur" style="shape=umlActor;verticalLabelPosition=bottom;verticalAlign=top;html=1;outlineConnect=0;fontFamily=Open Sans;fontSource=https%3A%2F%2Ffonts.googleapis.com%2Fcss%3Ffamily%3DOpen%2BSans;" parent="RaduN4FEJv7Jgq1yJ2gZ-1" vertex="1"><mxGeometry x="110" y="260" width="70" height="140" as="geometry"/></mxCell><mxCell id="dZsCkp-0b_cOngw6SixP-1" value="" style="endArrow=classic;html=1;rounded=0;fontFamily=Open Sans;fontSource=https%3A%2F%2Ffonts.googleapis.com%2Fcss%3Ffamily%3DOpen%2BSans;fontSize=14;entryX=0;entryY=0.5;entryDx=0;entryDy=0;exitX=1;exitY=0.3333333333333333;exitDx=0;exitDy=0;exitPerimeter=0;" edge="1" parent="RaduN4FEJv7Jgq1yJ2gZ-1" source="vP3g1e_jsOb5a7pWJ1PA-0" target="vP3g1e_jsOb5a7pWJ1PA-3"><mxGeometry width="50" height="50" relative="1" as="geometry"><mxPoint x="190" y="316.66666666666674" as="sourcePoint"/><mxPoint x="590" y="415" as="targetPoint"/></mxGeometry></mxCell><mxCell id="dZsCkp-0b_cOngw6SixP-2" value="" style="endArrow=classic;html=1;rounded=0;fontFamily=Open Sans;fontSource=https%3A%2F%2Ffonts.googleapis.com%2Fcss%3Ffamily%3DOpen%2BSans;fontSize=14;entryX=0;entryY=0.5;entryDx=0;entryDy=0;exitX=1;exitY=0.3333333333333333;exitDx=0;exitDy=0;exitPerimeter=0;" edge="1" parent="RaduN4FEJv7Jgq1yJ2gZ-1" source="vP3g1e_jsOb5a7pWJ1PA-0" target="dZsCkp-0b_cOngw6SixP-0"><mxGeometry width="50" height="50" relative="1" as="geometry"><mxPoint x="200" y="326.66666666666674" as="sourcePoint"/><mxPoint x="600" y="425" as="targetPoint"/></mxGeometry></mxCell><mxCell id="dZsCkp-0b_cOngw6SixP-3" value="" style="endArrow=classic;html=1;rounded=0;fontFamily=Open Sans;fontSource=https%3A%2F%2Ffonts.googleapis.com%2Fcss%3Ffamily%3DOpen%2BSans;fontSize=14;entryX=0;entryY=0.5;entryDx=0;entryDy=0;exitX=1;exitY=0.3333333333333333;exitDx=0;exitDy=0;exitPerimeter=0;" edge="1" parent="RaduN4FEJv7Jgq1yJ2gZ-1" source="vP3g1e_jsOb5a7pWJ1PA-0" target="vP3g1e_jsOb5a7pWJ1PA-1"><mxGeometry width="50" height="50" relative="1" as="geometry"><mxPoint x="210" y="336.66666666666674" as="sourcePoint"/><mxPoint x="610" y="435" as="targetPoint"/></mxGeometry></mxCell></root></mxGraphModel></diagram><diagram id="5MfhZOpvltxTM3ARevW0" name="4. calendrier"><mxGraphModel dx="1366" dy="794" grid="1" gridSize="10" guides="1" tooltips="1" connect="1" arrows="1" fold="1" page="1" pageScale="1" pageWidth="827" pageHeight="1169" math="0" shadow="0"><root><mxCell id="4CYTl0fOpBRvBrNWKuWK-0"/><mxCell id="4CYTl0fOpBRvBrNWKuWK-1" parent="4CYTl0fOpBRvBrNWKuWK-0"/><mxCell id="w8hVaXaBUIeTjlnxayXR-0" value="" style="shape=folder;fontStyle=1;spacingTop=10;tabWidth=111;tabHeight=24;tabPosition=left;html=1;align=left;verticalAlign=top;" parent="4CYTl0fOpBRvBrNWKuWK-1" vertex="1"><mxGeometry x="290" y="13.51" width="430" height="526.49" as="geometry"/></mxCell><mxCell id="OjBl-M0junSSJN_UIuKY-3" value="Afficher évènements" style="ellipse;whiteSpace=wrap;html=1;fontFamily=Open Sans;verticalAlign=middle;fontSource=https%3A%2F%2Ffonts.googleapis.com%2Fcss%3Ffamily%3DOpen%2BSans;fillColor=#fff2cc;strokeColor=#d6b656;" parent="4CYTl0fOpBRvBrNWKuWK-1" vertex="1"><mxGeometry x="455" y="186" width="90" height="60" as="geometry"/></mxCell><mxCell id="wuJRlMCa8a_SjmCl2X6g-0" value="Élève / Tuteur" style="shape=umlActor;verticalLabelPosition=bottom;verticalAlign=top;html=1;outlineConnect=0;fontFamily=Open Sans;fontSource=https%3A%2F%2Ffonts.googleapis.com%2Fcss%3Ffamily%3DOpen%2BSans;" parent="4CYTl0fOpBRvBrNWKuWK-1" vertex="1"><mxGeometry x="160" y="170" width="70" height="140" as="geometry"/></mxCell><mxCell id="wuJRlMCa8a_SjmCl2X6g-1" value="" style="endArrow=classic;html=1;rounded=0;fontFamily=Open Sans;fontSource=https%3A%2F%2Ffonts.googleapis.com%2Fcss%3Ffamily%3DOpen%2BSans;fontSize=14;entryX=0;entryY=0.5;entryDx=0;entryDy=0;exitX=1;exitY=0.3333333333333333;exitDx=0;exitDy=0;exitPerimeter=0;" parent="4CYTl0fOpBRvBrNWKuWK-1" source="wuJRlMCa8a_SjmCl2X6g-0" target="OjBl-M0junSSJN_UIuKY-3" edge="1"><mxGeometry width="50" height="50" relative="1" as="geometry"><mxPoint x="270" y="420" as="sourcePoint"/><mxPoint x="320" y="370" as="targetPoint"/></mxGeometry></mxCell><mxCell id="2T_wNO2SLocS2Q4SeIGR-0" value="&lt;font style=&quot;font-size: 14px&quot;&gt;4. Calendrier&lt;/font&gt;" style="text;html=1;strokeColor=none;fillColor=none;align=center;verticalAlign=middle;whiteSpace=wrap;rounded=0;fontFamily=Open Sans;fontSource=https%3A%2F%2Ffonts.googleapis.com%2Fcss%3Ffamily%3DOpen%2BSans;fontSize=14;" parent="4CYTl0fOpBRvBrNWKuWK-1" vertex="1"><mxGeometry x="290" y="10" width="110" height="35.1" as="geometry"/></mxCell><mxCell id="8dJH3kg9K68VoYyE0cVf-0" value="Afficher RDV" style="ellipse;whiteSpace=wrap;html=1;fontFamily=Open Sans;verticalAlign=middle;fontSource=https%3A%2F%2Ffonts.googleapis.com%2Fcss%3Ffamily%3DOpen%2BSans;fillColor=#fff2cc;strokeColor=#d6b656;" vertex="1" parent="4CYTl0fOpBRvBrNWKuWK-1"><mxGeometry x="455" y="280" width="90" height="60" as="geometry"/></mxCell><mxCell id="8dJH3kg9K68VoYyE0cVf-3" value="" style="endArrow=classic;html=1;rounded=0;fontFamily=Open Sans;fontSource=https%3A%2F%2Ffonts.googleapis.com%2Fcss%3Ffamily%3DOpen%2BSans;fontSize=14;entryX=0;entryY=0.5;entryDx=0;entryDy=0;exitX=1;exitY=0.3333333333333333;exitDx=0;exitDy=0;exitPerimeter=0;" edge="1" parent="4CYTl0fOpBRvBrNWKuWK-1" source="wuJRlMCa8a_SjmCl2X6g-0" target="8dJH3kg9K68VoYyE0cVf-0"><mxGeometry width="50" height="50" relative="1" as="geometry"><mxPoint x="240" y="226.66666666666663" as="sourcePoint"/><mxPoint x="465" y="226" as="targetPoint"/></mxGeometry></mxCell></root></mxGraphModel></diagram><diagram id="WcSE28HzE118ru-9Gia1" name="5. gestion de tâches"><mxGraphModel dx="1366" dy="794" grid="1" gridSize="10" guides="1" tooltips="1" connect="1" arrows="1" fold="1" page="1" pageScale="1" pageWidth="827" pageHeight="1169" math="0" shadow="0"><root><mxCell id="CBrr2eyFbl-5ck984wMz-0"/><mxCell id="CBrr2eyFbl-5ck984wMz-1" parent="CBrr2eyFbl-5ck984wMz-0"/><mxCell id="OsAXHrWG7yI2yoVYv5RI-0" value="" style="shape=folder;fontStyle=1;spacingTop=10;tabWidth=140;tabHeight=26;tabPosition=left;html=1;align=left;verticalAlign=top;" parent="CBrr2eyFbl-5ck984wMz-1" vertex="1"><mxGeometry x="290" y="13.51" width="430" height="526.49" as="geometry"/></mxCell><mxCell id="OsAXHrWG7yI2yoVYv5RI-1" value="&lt;font style=&quot;font-size: 14px&quot;&gt;5. Gestion de tâches&lt;/font&gt;" style="text;html=1;strokeColor=none;fillColor=none;align=center;verticalAlign=middle;whiteSpace=wrap;rounded=0;fontFamily=Open Sans;fontSource=https%3A%2F%2Ffonts.googleapis.com%2Fcss%3Ffamily%3DOpen%2BSans;fontSize=14;" parent="CBrr2eyFbl-5ck984wMz-1" vertex="1"><mxGeometry x="290" y="10" width="140" height="35.1" as="geometry"/></mxCell><mxCell id="f-vBy_yZlUni0X8QA-J0-1" value="Tuteur" style="shape=umlActor;verticalLabelPosition=bottom;verticalAlign=top;html=1;outlineConnect=0;fontFamily=Open Sans;fontSource=https%3A%2F%2Ffonts.googleapis.com%2Fcss%3Ffamily%3DOpen%2BSans;" parent="CBrr2eyFbl-5ck984wMz-1" vertex="1"><mxGeometry x="120" y="400" width="70" height="140" as="geometry"/></mxCell><mxCell id="f-vBy_yZlUni0X8QA-J0-2" value="Élève" style="shape=umlActor;verticalLabelPosition=bottom;verticalAlign=top;html=1;outlineConnect=0;fontFamily=Open Sans;fontSource=https%3A%2F%2Ffonts.googleapis.com%2Fcss%3Ffamily%3DOpen%2BSans;" parent="CBrr2eyFbl-5ck984wMz-1" vertex="1"><mxGeometry x="120" y="120" width="70" height="140" as="geometry"/></mxCell><mxCell id="f-vBy_yZlUni0X8QA-J0-4" value="Créer une tâche" style="ellipse;whiteSpace=wrap;html=1;fontFamily=Open Sans;verticalAlign=middle;fontSource=https%3A%2F%2Ffonts.googleapis.com%2Fcss%3Ffamily%3DOpen%2BSans;fillColor=#fff2cc;strokeColor=#d6b656;" parent="CBrr2eyFbl-5ck984wMz-1" vertex="1"><mxGeometry x="455" y="140" width="90" height="60" as="geometry"/></mxCell><mxCell id="j1czhY-13eml8FKOWIFm-0" value="Assigner tâche à un élève" style="ellipse;whiteSpace=wrap;html=1;fontFamily=Open Sans;verticalAlign=middle;fontSource=https%3A%2F%2Ffonts.googleapis.com%2Fcss%3Ffamily%3DOpen%2BSans;fillColor=#fff2cc;strokeColor=#d6b656;" parent="CBrr2eyFbl-5ck984wMz-1" vertex="1"><mxGeometry x="455" y="420" width="90" height="60" as="geometry"/></mxCell><mxCell id="j1czhY-13eml8FKOWIFm-1" value="" style="endArrow=classic;html=1;rounded=0;fontFamily=Open Sans;fontSource=https%3A%2F%2Ffonts.googleapis.com%2Fcss%3Ffamily%3DOpen%2BSans;fontSize=14;entryX=0;entryY=0.5;entryDx=0;entryDy=0;exitX=1;exitY=0.3333333333333333;exitDx=0;exitDy=0;exitPerimeter=0;" parent="CBrr2eyFbl-5ck984wMz-1" source="f-vBy_yZlUni0X8QA-J0-1" target="j1czhY-13eml8FKOWIFm-0" edge="1"><mxGeometry width="50" height="50" relative="1" as="geometry"><mxPoint x="270" y="430" as="sourcePoint"/><mxPoint x="320" y="380" as="targetPoint"/></mxGeometry></mxCell><mxCell id="j1czhY-13eml8FKOWIFm-3" value="" style="endArrow=classic;html=1;rounded=0;fontFamily=Open Sans;fontSource=https%3A%2F%2Ffonts.googleapis.com%2Fcss%3Ffamily%3DOpen%2BSans;fontSize=14;entryX=0;entryY=0.5;entryDx=0;entryDy=0;exitX=1;exitY=0.3333333333333333;exitDx=0;exitDy=0;exitPerimeter=0;" parent="CBrr2eyFbl-5ck984wMz-1" source="f-vBy_yZlUni0X8QA-J0-2" target="f-vBy_yZlUni0X8QA-J0-4" edge="1"><mxGeometry width="50" height="50" relative="1" as="geometry"><mxPoint x="270" y="430" as="sourcePoint"/><mxPoint x="320" y="380" as="targetPoint"/></mxGeometry></mxCell><mxCell id="GlfuhE11uTlO30LobT1V-2" value="" style="endArrow=classic;html=1;rounded=0;fontSize=14;entryX=0.5;entryY=1;entryDx=0;entryDy=0;exitX=0.5;exitY=0;exitDx=0;exitDy=0;dashed=1;" parent="CBrr2eyFbl-5ck984wMz-1" source="j1czhY-13eml8FKOWIFm-0" target="f-vBy_yZlUni0X8QA-J0-4" edge="1"><mxGeometry width="50" height="50" relative="1" as="geometry"><mxPoint x="620" y="400" as="sourcePoint"/><mxPoint x="670" y="350" as="targetPoint"/></mxGeometry></mxCell><mxCell id="GlfuhE11uTlO30LobT1V-3" value="&lt;font face=&quot;Open Sans&quot; data-font-src=&quot;https://fonts.googleapis.com/css?family=Open+Sans&quot;&gt;&amp;lt;&amp;lt; Extends &amp;gt;&amp;gt;&lt;/font&gt;" style="edgeLabel;html=1;align=center;verticalAlign=middle;resizable=0;points=[];fontSize=14;" parent="GlfuhE11uTlO30LobT1V-2" vertex="1" connectable="0"><mxGeometry x="-0.1" relative="1" as="geometry"><mxPoint as="offset"/></mxGeometry></mxCell><mxCell id="-1yD_yN4On87PObHzOmk-0" value="" style="endArrow=classic;html=1;rounded=0;fontFamily=Open Sans;fontSource=https%3A%2F%2Ffonts.googleapis.com%2Fcss%3Ffamily%3DOpen%2BSans;fontSize=14;entryX=0;entryY=0.5;entryDx=0;entryDy=0;exitX=1;exitY=0.3333333333333333;exitDx=0;exitDy=0;exitPerimeter=0;" edge="1" parent="CBrr2eyFbl-5ck984wMz-1" source="f-vBy_yZlUni0X8QA-J0-1" target="f-vBy_yZlUni0X8QA-J0-4"><mxGeometry width="50" height="50" relative="1" as="geometry"><mxPoint x="200" y="176.66666666666663" as="sourcePoint"/><mxPoint x="465" y="180" as="targetPoint"/></mxGeometry></mxCell></root></mxGraphModel></diagram></mxfile>